<svg width="12" height="15" viewBox="0 0 12 15" fill="none" xmlns="http://www.w3.org/2000/svg">
<path d="M11.363 5.09579L7.46388 1.19999C7.26797 1.00315 7.00574 0.894737 6.72768 0.894737H1.0317C0.457677 0.894737 -0.00997925 1.3621 -0.00997925 1.93579V13.5379C-0.00997925 14.1116 0.457677 14.5789 1.0317 14.5789H10.6257C11.2008 14.5789 11.6674 14.1116 11.6674 13.5379V5.83263C11.6674 5.55368 11.56 5.29263 11.363 5.09579ZM10.8732 13.5379C10.8732 13.6737 10.7627 13.7842 10.6257 13.7842H1.0317C0.895828 13.7842 0.785228 13.6737 0.785228 13.5379V1.93579C0.785228 1.8 0.895828 1.68948 1.0317 1.68948H6.46855C6.61706 1.68948 6.73823 1.81053 6.73823 1.95895V4.89684C6.73823 5.39263 7.14053 5.79474 7.63661 5.79474H10.6036C10.6753 5.79474 10.7437 5.82315 10.7942 5.87368C10.8448 5.92421 10.8732 5.99263 10.8732 6.06421V13.5379Z" fill="#034154"/>
<path d="M2.2745 12.8411C1.96906 12.8411 1.70473 12.6821 1.58466 12.4274C1.44879 12.14 1.51936 11.7874 1.77109 11.4821C2.1155 11.0653 2.75372 10.6905 3.77537 10.3053C3.98918 9.91263 4.16931 9.53052 4.30096 9.19473C4.53479 8.59894 4.69591 8.16105 4.82862 7.76421C4.57689 7.24947 4.39893 6.69684 4.28412 6.07895C4.19776 5.61158 4.27462 5.20631 4.49896 4.93684C4.65695 4.74631 4.88339 4.63683 5.11931 4.63683C5.34787 4.63683 5.56694 4.74 5.72282 4.92105C5.93031 5.16315 6.00935 5.52315 5.94615 5.93263C5.85873 6.49578 5.72181 7.06422 5.51538 7.70843C5.74709 8.13053 6.03355 8.51685 6.3885 8.88316C6.57071 9.07158 6.75921 9.2442 6.95196 9.39894C7.76822 9.26526 8.45288 9.26843 9.00162 9.40737C9.5767 9.55264 9.79471 9.97474 9.75363 10.3053C9.71361 10.6242 9.43342 10.9453 8.89626 10.9453C8.77619 10.9453 8.64772 10.9284 8.51396 10.8958C7.91466 10.7463 7.33537 10.4695 6.78874 10.0737C6.37692 10.1537 5.92295 10.2705 5.4374 10.42C5.0656 10.5347 4.63799 10.6684 4.21669 10.82C3.94179 11.3074 3.62897 11.7905 3.30879 12.2231C2.91171 12.761 2.49042 12.8411 2.2745 12.8411ZM3.22772 11.2263C2.76219 11.4505 2.43881 11.6716 2.26081 11.8874C2.1597 12.0084 2.13757 12.1095 2.15969 12.1568C2.17444 12.1874 2.21763 12.2063 2.2745 12.2063C2.33454 12.2063 2.55046 12.18 2.79798 11.8453C2.94438 11.6484 3.08764 11.4411 3.22772 11.2263ZM7.78406 9.94315C8.07265 10.0916 8.36861 10.2042 8.66773 10.2789C8.75093 10.3 8.8278 10.3105 8.89626 10.3105C9.04372 10.3105 9.11853 10.26 9.12274 10.2263C9.128 10.1863 9.06481 10.0789 8.84573 10.0232C8.54872 9.94736 8.19378 9.92104 7.78406 9.94315ZM4.68854 9.96947L4.67485 9.99474C4.87496 9.92948 5.06878 9.86948 5.24994 9.81369C5.55328 9.72001 5.84607 9.6379 6.12519 9.57053L6.10095 9.55158L6.15154 9.5421C6.07676 9.47157 6.00404 9.39894 5.93137 9.3242C5.67648 9.06105 5.45324 8.78737 5.25734 8.50001L5.23837 8.55789L5.22886 8.54106C5.13406 8.80001 5.02456 9.08842 4.8929 9.42527C4.82339 9.60211 4.74224 9.78947 4.65061 9.98316L4.68854 9.96947ZM5.11931 5.27158C5.07192 5.27158 5.0256 5.29684 4.98663 5.34315C4.93923 5.4 4.83707 5.57369 4.90975 5.96316C4.96346 6.25579 5.03295 6.53158 5.11931 6.79369C5.20463 6.46316 5.26996 6.14737 5.31841 5.83579C5.35211 5.61474 5.32363 5.43263 5.24043 5.33368C5.20462 5.29368 5.1625 5.27158 5.11931 5.27158Z" fill="#034154"/>
</svg>
