<svg width="107" height="9" viewBox="0 0 107 9" fill="none" xmlns="http://www.w3.org/2000/svg">
<path d="M0.948065 8V0.727273H3.49068C3.99731 0.727273 4.41516 0.814867 4.74423 0.990057C5.0733 1.16288 5.31833 1.39607 5.47931 1.68963C5.6403 1.98082 5.72079 2.30398 5.72079 2.65909C5.72079 2.97159 5.66516 3.22964 5.55389 3.43324C5.44499 3.63684 5.30057 3.79782 5.12065 3.91619C4.94309 4.03456 4.75015 4.12216 4.54181 4.17898V4.25C4.76435 4.2642 4.98807 4.34233 5.21298 4.48438C5.43789 4.62642 5.6261 4.83002 5.77761 5.09517C5.92913 5.36032 6.00488 5.68466 6.00488 6.06818C6.00488 6.43277 5.92202 6.76065 5.7563 7.05185C5.59058 7.34304 5.32898 7.57386 4.9715 7.74432C4.61402 7.91477 4.14882 8 3.57591 8H0.948065ZM1.82875 7.21875H3.57591C4.15119 7.21875 4.55957 7.10748 4.80105 6.88494C5.04489 6.66004 5.16681 6.38778 5.16681 6.06818C5.16681 5.82197 5.10408 5.5947 4.9786 5.38636C4.85313 5.17566 4.67439 5.00758 4.44238 4.8821C4.21038 4.75426 3.93575 4.69034 3.61852 4.69034H1.82875V7.21875ZM1.82875 3.9233H3.46227C3.72742 3.9233 3.96653 3.87121 4.1796 3.76705C4.39503 3.66288 4.56549 3.5161 4.69096 3.3267C4.8188 3.13731 4.88272 2.91477 4.88272 2.65909C4.88272 2.33949 4.77145 2.06842 4.54892 1.84588C4.32638 1.62098 3.97363 1.50852 3.49068 1.50852H1.82875V3.9233ZM7.45197 8V0.727273H11.8412V1.50852H8.33265V3.96591H11.6139V4.74716H8.33265V7.21875H11.898V8H7.45197ZM13.4285 8V0.727273H15.8859C16.4541 0.727273 16.9205 0.824337 17.2851 1.01847C17.6497 1.21023 17.9195 1.47419 18.0947 1.81037C18.2699 2.14654 18.3575 2.52888 18.3575 2.95739C18.3575 3.38589 18.2699 3.76586 18.0947 4.0973C17.9195 4.42874 17.6508 4.68916 17.2886 4.87855C16.9264 5.06558 16.4636 5.15909 15.9001 5.15909H13.9115V4.36364H15.8717C16.26 4.36364 16.5725 4.30682 16.8092 4.19318C17.0483 4.07955 17.2211 3.91856 17.3277 3.71023C17.4366 3.49953 17.491 3.24858 17.491 2.95739C17.491 2.66619 17.4366 2.41169 17.3277 2.19389C17.2188 1.97609 17.0448 1.808 16.8057 1.68963C16.5666 1.56889 16.2505 1.50852 15.8575 1.50852H14.3092V8H13.4285ZM16.8518 4.73295L18.6416 8H17.6189L15.8575 4.73295H16.8518ZM19.825 8V0.727273H24.2142V1.50852H20.7057V3.96591H23.9869V4.74716H20.7057V7.21875H24.271V8H19.825ZM26.6823 0.727273V8H25.8016V0.727273H26.6823ZM28.0503 1.50852V0.727273H33.5049V1.50852H31.218V8H30.3373V1.50852H28.0503ZM39.5329 3C39.4548 2.76089 39.3518 2.54664 39.224 2.35724C39.0985 2.16548 38.9482 2.00213 38.773 1.86719C38.6002 1.73224 38.4037 1.62926 38.1835 1.55824C37.9633 1.48722 37.7219 1.4517 37.4591 1.4517C37.0282 1.4517 36.6364 1.56297 36.2836 1.78551C35.9309 2.00805 35.6504 2.33594 35.442 2.76918C35.2337 3.20241 35.1295 3.7339 35.1295 4.36364C35.1295 4.99337 35.2349 5.52486 35.4456 5.9581C35.6563 6.39134 35.9416 6.71922 36.3014 6.94176C36.6613 7.1643 37.0661 7.27557 37.5159 7.27557C37.9326 7.27557 38.2995 7.18679 38.6167 7.00923C38.9363 6.82931 39.1849 6.57599 39.3625 6.24929C39.5424 5.92022 39.6324 5.53314 39.6324 5.08807L39.9023 5.14489H37.7148V4.36364H40.4846V5.14489C40.4846 5.74384 40.3568 6.26468 40.1011 6.70739C39.8478 7.15009 39.4974 7.49337 39.05 7.73722C38.6049 7.97869 38.0935 8.09943 37.5159 8.09943C36.872 8.09943 36.3061 7.94792 35.8184 7.64489C35.3331 7.34186 34.9543 6.91098 34.6821 6.35227C34.4122 5.79356 34.2773 5.13068 34.2773 4.36364C34.2773 3.78835 34.3542 3.27107 34.5081 2.81179C34.6643 2.35014 34.8845 1.95715 35.1686 1.63281C35.4527 1.30848 35.7889 1.0599 36.1771 0.887074C36.5654 0.714252 36.9927 0.627841 37.4591 0.627841C37.8426 0.627841 38.2001 0.685843 38.5315 0.801846C38.8653 0.915483 39.1624 1.07765 39.4229 1.28835C39.6856 1.49669 39.9046 1.74645 40.0798 2.03764C40.255 2.32647 40.3757 2.64725 40.442 3H39.5329ZM41.993 8V0.727273H46.3822V1.50852H42.8737V3.96591H46.1549V4.74716H42.8737V7.21875H46.439V8H41.993ZM51.9468 2.54545C51.9042 2.18561 51.7314 1.90625 51.4284 1.70739C51.1253 1.50852 50.7536 1.40909 50.3133 1.40909C49.9913 1.40909 49.7096 1.46117 49.4681 1.56534C49.229 1.66951 49.042 1.81274 48.907 1.99503C48.7745 2.17732 48.7082 2.38447 48.7082 2.61648C48.7082 2.81061 48.7544 2.97751 48.8467 3.11719C48.9414 3.2545 49.0621 3.36932 49.2089 3.46165C49.3557 3.55161 49.5096 3.62618 49.6705 3.68537C49.8315 3.74219 49.9795 3.78835 50.1144 3.82386L50.8531 4.02273C51.0425 4.07244 51.2532 4.1411 51.4852 4.22869C51.7195 4.31629 51.9433 4.43584 52.1563 4.58736C52.3718 4.73651 52.5493 4.92827 52.689 5.16264C52.8287 5.39702 52.8985 5.68466 52.8985 6.02557C52.8985 6.41856 52.7955 6.77367 52.5896 7.09091C52.386 7.40814 52.0877 7.66027 51.6947 7.8473C51.3041 8.03433 50.8294 8.12784 50.2707 8.12784C49.7499 8.12784 49.2989 8.0438 48.9177 7.87571C48.5389 7.70762 48.2406 7.47325 48.0228 7.17259C47.8074 6.87192 47.6855 6.52273 47.657 6.125H48.5661C48.5898 6.39962 48.6821 6.62689 48.8431 6.80682C49.0065 6.98437 49.2124 7.11695 49.461 7.20455C49.712 7.28977 49.9819 7.33239 50.2707 7.33239C50.6069 7.33239 50.9087 7.27794 51.1762 7.16903C51.4437 7.05777 51.6556 6.90388 51.8119 6.70739C51.9681 6.50852 52.0463 6.27652 52.0463 6.01136C52.0463 5.76989 51.9788 5.57339 51.8438 5.42188C51.7089 5.27036 51.5313 5.14725 51.3112 5.05256C51.091 4.95786 50.8531 4.875 50.5974 4.80398L49.7025 4.5483C49.1343 4.38494 48.6845 4.15175 48.3531 3.84872C48.0216 3.54569 47.8559 3.14915 47.8559 2.65909C47.8559 2.25189 47.966 1.89678 48.1862 1.59375C48.4087 1.28835 48.707 1.05161 49.0811 0.883523C49.4575 0.713068 49.8777 0.627841 50.3417 0.627841C50.8105 0.627841 51.2271 0.711884 51.5917 0.879971C51.9563 1.04569 52.2451 1.27296 52.4582 1.56179C52.6736 1.85062 52.7873 2.1785 52.7991 2.54545H51.9468ZM53.9488 1.50852V0.727273H59.4033V1.50852H57.1164V8H56.2357V1.50852H53.9488ZM60.7625 8V0.727273H65.1517V1.50852H61.6432V3.96591H64.9244V4.74716H61.6432V7.21875H65.2085V8H60.7625ZM66.7391 8V0.727273H67.6198V7.21875H71.0004V8H66.7391ZM72.3641 8V0.727273H73.2448V7.21875H76.6254V8H72.3641ZM76.6246 1.50852V0.727273H82.0791V1.50852H79.7922V8H78.9115V1.50852H76.6246ZM86.5491 0.727273L88.7082 6.84943H88.7934L90.9525 0.727273H91.8758L89.2053 8H88.2963L85.6258 0.727273H86.5491ZM98.8032 4.36364C98.8032 5.13068 98.6647 5.79356 98.3877 6.35227C98.1107 6.91098 97.7307 7.34186 97.2478 7.64489C96.7648 7.94792 96.2132 8.09943 95.593 8.09943C94.9727 8.09943 94.4211 7.94792 93.9381 7.64489C93.4552 7.34186 93.0752 6.91098 92.7982 6.35227C92.5212 5.79356 92.3827 5.13068 92.3827 4.36364C92.3827 3.59659 92.5212 2.93371 92.7982 2.375C93.0752 1.81629 93.4552 1.38542 93.9381 1.08239C94.4211 0.779356 94.9727 0.627841 95.593 0.627841C96.2132 0.627841 96.7648 0.779356 97.2478 1.08239C97.7307 1.38542 98.1107 1.81629 98.3877 2.375C98.6647 2.93371 98.8032 3.59659 98.8032 4.36364ZM97.9509 4.36364C97.9509 3.7339 97.8456 3.20241 97.6349 2.76918C97.4265 2.33594 97.1436 2.00805 96.7861 1.78551C96.431 1.56297 96.0333 1.4517 95.593 1.4517C95.1526 1.4517 94.7537 1.56297 94.3962 1.78551C94.0411 2.00805 93.7582 2.33594 93.5475 2.76918C93.3392 3.20241 93.235 3.7339 93.235 4.36364C93.235 4.99337 93.3392 5.52486 93.5475 5.9581C93.7582 6.39134 94.0411 6.71922 94.3962 6.94176C94.7537 7.1643 95.1526 7.27557 95.593 7.27557C96.0333 7.27557 96.431 7.1643 96.7861 6.94176C97.1436 6.71922 97.4265 6.39134 97.6349 5.9581C97.8456 5.52486 97.9509 4.99337 97.9509 4.36364ZM106.051 0.727273V8H105.199L101.236 2.28977H101.165V8H100.284V0.727273H101.136L105.114 6.4517H105.185V0.727273H106.051Z" fill="#2B606F" fill-opacity="0.4"/>
</svg>
