<svg width="19" height="16" viewBox="0 0 19 16" fill="none" xmlns="http://www.w3.org/2000/svg">
<path fill-rule="evenodd" clip-rule="evenodd" d="M3.98957 1.84422C2.60666 2.4758 1.59341 3.98001 1.59341 5.77264C1.59341 7.60317 2.34332 9.01475 3.41763 10.2242C4.30341 11.2211 5.37666 12.0484 6.42148 12.8527C6.67005 13.0442 6.91761 13.2358 7.15986 13.4263C7.59801 13.7727 7.98982 14.0747 8.36688 14.2958C8.74394 14.5158 9.04725 14.6158 9.30634 14.6158C9.56439 14.6158 9.86772 14.5158 10.2448 14.2958C10.6229 14.0747 11.0136 13.7727 11.4518 13.4263C11.694 13.2348 11.9416 13.0442 12.1902 12.8537C13.2361 12.0474 14.3082 11.2211 15.194 10.2242C16.2694 9.01475 17.0193 7.60317 17.0193 5.77264C17.0193 3.98001 16.0061 2.4758 14.6221 1.84422C13.2781 1.23054 11.4718 1.39264 9.75608 3.1758C9.69815 3.2358 9.62758 3.28423 9.55069 3.31686C9.47275 3.34949 9.38955 3.36633 9.30634 3.36633C9.22208 3.36633 9.13891 3.34949 9.06097 3.31686C8.98408 3.28423 8.91456 3.2358 8.85558 3.1758C7.13983 1.39264 5.33352 1.23054 3.98957 1.84422ZM9.30634 1.87476C7.37785 0.149494 5.21975 -0.0915678 3.46925 0.70738C1.62291 1.55264 0.342163 3.51264 0.342163 5.77264C0.342163 7.99369 1.26795 9.68844 2.48234 11.0558C3.45555 12.1495 4.64467 13.0653 5.69686 13.8737C5.93489 14.0568 6.16557 14.2358 6.38465 14.4084C6.81332 14.7453 7.2715 15.1042 7.73599 15.3758C8.20047 15.6463 8.73022 15.8674 9.30634 15.8674C9.88142 15.8674 10.4112 15.6463 10.8757 15.3758C11.3412 15.1042 11.7994 14.7453 12.227 14.4084C12.4556 14.2295 12.6852 14.0505 12.9158 13.8737C13.9659 13.0653 15.1572 12.1484 16.1293 11.0558C17.3437 9.68844 18.2695 7.99369 18.2695 5.77264C18.2695 3.51264 16.9898 1.55265 15.1424 0.70844C13.393 -0.0915603 11.2338 0.150547 9.30634 1.87476Z" fill="#034154"/>
</svg>
