<svg width="23" height="25" viewBox="0 0 23 25" fill="none" xmlns="http://www.w3.org/2000/svg">
<path d="M21.5625 12.375C21.5625 8.78125 19.6309 5.50195 16.5312 3.70508C13.3867 1.86328 9.56836 1.86328 6.46875 3.70508C3.32422 5.50195 1.4375 8.78125 1.4375 12.375C1.4375 16.0137 3.32422 19.293 6.46875 21.0898C9.56836 22.9316 13.3867 22.9316 16.5312 21.0898C19.6309 19.293 21.5625 16.0137 21.5625 12.375ZM0 12.375C0 8.28711 2.15625 4.51367 5.75 2.44727C9.29883 0.380859 13.6562 0.380859 17.25 2.44727C20.7988 4.51367 23 8.28711 23 12.375C23 16.5078 20.7988 20.2812 17.25 22.3477C13.6562 24.4141 9.29883 24.4141 5.75 22.3477C2.15625 20.2812 0 16.5078 0 12.375ZM7.54688 8.51172C7.86133 7.43359 8.84961 6.625 9.97266 6.625H12.5781C14.1504 6.625 15.4531 7.92773 15.4531 9.54492C15.4531 10.623 14.8242 11.6113 13.8809 12.1055L12.2188 12.959V13.8125C12.2188 14.2168 11.8594 14.5312 11.5 14.5312C11.0957 14.5312 10.7812 14.2168 10.7812 13.8125V12.5098C10.7812 12.2402 10.916 11.9707 11.1406 11.8809L13.207 10.8027C13.7012 10.5781 14.0156 10.084 14.0156 9.54492C14.0156 8.73633 13.3418 8.0625 12.5781 8.0625H9.97266C9.52344 8.0625 9.07422 8.42188 8.93945 8.87109V8.91602C8.84961 9.27539 8.44531 9.54492 8.08594 9.41016C7.68164 9.32031 7.45703 8.91602 7.54688 8.55664V8.51172ZM10.4219 16.6875C10.4219 16.1035 10.8711 15.6094 11.5 15.6094C12.084 15.6094 12.5781 16.1035 12.5781 16.6875C12.5781 17.3164 12.084 17.7656 11.5 17.7656C10.8711 17.7656 10.4219 17.3164 10.4219 16.6875Z" fill="white"/>
</svg>
